<?xml version="1.0" encoding="UTF-8" standalone="no"?>
<!-- Created with Inkscape (http://www.inkscape.org/) -->

<svg
   height="128"
   width="128"
   version="1.1"
   id="svg61"
   sodipodi:docname="kstars_bleeding.svg"
   xml:space="preserve"
   inkscape:version="1.4 (e7c3feb100, 2024-10-09)"
   xmlns:inkscape="http://www.inkscape.org/namespaces/inkscape"
   xmlns:sodipodi="http://sodipodi.sourceforge.net/DTD/sodipodi-0.dtd"
   xmlns:xlink="http://www.w3.org/1999/xlink"
   xmlns="http://www.w3.org/2000/svg"
   xmlns:svg="http://www.w3.org/2000/svg"><sodipodi:namedview
     id="namedview61"
     pagecolor="#ffffff"
     bordercolor="#666666"
     borderopacity="1.0"
     inkscape:showpageshadow="2"
     inkscape:pageopacity="0.0"
     inkscape:pagecheckerboard="0"
     inkscape:deskcolor="#d1d1d1"
     showgrid="false"
     inkscape:zoom="9.1171875"
     inkscape:cx="64.054841"
     inkscape:cy="63.780634"
     inkscape:window-width="2560"
     inkscape:window-height="1376"
     inkscape:window-x="1680"
     inkscape:window-y="0"
     inkscape:window-maximized="1"
     inkscape:current-layer="svg61"><inkscape:grid
       id="grid64"
       units="px"
       originx="0"
       originy="0"
       spacingx="3.7795276"
       spacingy="3.7795276"
       empcolor="#0099e5"
       empopacity="0.30196078"
       color="#0099e5"
       opacity="0.14901961"
       empspacing="5"
       enabled="true"
       visible="false" /></sodipodi:namedview><defs
     id="defs16"><linearGradient
       id="linearGradient11004"><stop
         offset="0"
         stop-color="#fff"
         id="stop1" /><stop
         offset="1"
         stop-color="#fff"
         stop-opacity="0"
         id="stop2" /></linearGradient><linearGradient
       id="linearGradient3964"><stop
         offset="0"
         id="stop3" /><stop
         offset="1"
         stop-opacity="0"
         id="stop4" /></linearGradient><linearGradient
       id="linearGradient3770"><stop
         offset="0"
         stop-color="#eeeeec"
         id="stop5" /><stop
         offset="1"
         stop-color="#9f9f94"
         id="stop6" /></linearGradient><linearGradient
       id="linearGradient2285"><stop
         offset="0"
         stop-color="#5e5e5e"
         id="stop7" /><stop
         offset=".75901806"
         stop-color="#dedede"
         id="stop8" /><stop
         offset=".93379617"
         stop-color="#8d8d8d"
         id="stop9" /><stop
         offset="1"
         stop-color="#616161"
         id="stop10" /></linearGradient><linearGradient
       id="linearGradient2301"><stop
         offset="0"
         stop-color="#dcdcdc"
         id="stop11" /><stop
         offset="1"
         stop-color="#dcdcdc"
         stop-opacity="0"
         id="stop12" /></linearGradient><radialGradient
       id="radialGradient10053"
       cx="21.288511"
       cy="62.975674"
       fx="20.364378"
       fy="54.510296"
       gradientTransform="matrix(1.230357,0.490848,-0.30559,0.765992,6.44469,-26.19364)"
       gradientUnits="userSpaceOnUse"
       r="33.898083"
       xlink:href="#linearGradient11004" /><radialGradient
       id="radialGradient10055"
       cx="45.072037"
       cy="48.438328"
       fx="49.431042"
       fy="63.654842"
       gradientUnits="userSpaceOnUse"
       r="20.470032"
       xlink:href="#linearGradient3770" /><linearGradient
       id="linearGradient10057"
       gradientTransform="matrix(1.160976,0.127867,-0.112206,1.162701,-7.645123,-42.36726)"
       gradientUnits="userSpaceOnUse"
       x1="46.229446"
       x2="50.325378"
       xlink:href="#linearGradient11004"
       y1="34.836998"
       y2="67.717461" /><linearGradient
       id="linearGradient10059"
       gradientUnits="userSpaceOnUse"
       x1="102.57959284799"
       x2="118.78333829896"
       xlink:href="#linearGradient3770"
       y1="65.59241421027"
       y2="65.59241421027" /><linearGradient
       id="linearGradient10061"
       gradientUnits="userSpaceOnUse"
       x1="30.7655573125"
       x2="64.37977882749"
       xlink:href="#linearGradient3770"
       y1="35.11364410301"
       y2="35.11364410301" /><radialGradient
       id="radialGradient10063"
       cx="58.680527"
       cy="7.230381"
       gradientTransform="matrix(1.038889,0.691318,-0.102656,0.154268,1.697475,-11.26445)"
       gradientUnits="userSpaceOnUse"
       r="55.698994"
       xlink:href="#linearGradient11004" /><radialGradient
       id="radialGradient10065"
       cx="116.125"
       cy="65.4375"
       fx="115.49471"
       fy="64.290573"
       gradientTransform="matrix(1,0,0,1.191489,0,-12.53059)"
       gradientUnits="userSpaceOnUse"
       r="2.9375"
       xlink:href="#linearGradient3964" /><radialGradient
       id="radialGradient10067"
       cx="21.288511"
       cy="62.975674"
       fx="20.364378"
       fy="54.510296"
       gradientTransform="matrix(-0.149257,0.05954567,0.03707168,0.09292389,126.4361,56.59784)"
       gradientUnits="userSpaceOnUse"
       r="33.898083"
       xlink:href="#linearGradient11004" /><linearGradient
       id="linearGradient10069"
       gradientTransform="matrix(-0.112993,0,0,0.112993,122.2074,55.53833)"
       gradientUnits="userSpaceOnUse"
       x1="-11.3125"
       x2="24.776604"
       xlink:href="#linearGradient3770"
       y1="75.197922"
       y2="75.197922" /><radialGradient
       id="radialGradient10071"
       cx="58.680527"
       cy="7.230381"
       gradientTransform="matrix(-0.12603,0.08386505,0.01245339,0.01871453,127.012,58.40892)"
       gradientUnits="userSpaceOnUse"
       r="55.698994"
       xlink:href="#linearGradient11004" /><radialGradient
       id="radialGradient10073"
       cx="71.881821"
       cy="71.608231"
       gradientTransform="matrix(1,0,0,1.013699,0,-0.980936)"
       gradientUnits="userSpaceOnUse"
       r="1.613087"
       xlink:href="#linearGradient2285" /><radialGradient
       id="radialGradient10081"
       cx="92.0625"
       cy="42.515625"
       fx="92.07354"
       fy="41.43642"
       gradientTransform="matrix(1.213029,-3.86e-6,0.03916403,1.515872,-21.27707,-21.93227)"
       gradientUnits="userSpaceOnUse"
       r="1.96875"
       xlink:href="#linearGradient3770" /><radialGradient
       id="radialGradient10083"
       cx="36.747746"
       cy="121.95814"
       fx="33.78273"
       fy="122.4772"
       gradientTransform="matrix(1,0,0,0.316667,0,83.33806)"
       gradientUnits="userSpaceOnUse"
       r="4.965911"
       xlink:href="#linearGradient3964" /><linearGradient
       id="linearGradient10087"
       gradientTransform="matrix(0.540477,0,0,0.09355344,48.63483,105.6998)"
       gradientUnits="userSpaceOnUse"
       x1="38.357395"
       x2="48.092775"
       xlink:href="#linearGradient2285"
       y1="86.916698"
       y2="86.916698" /><linearGradient
       id="linearGradient10089"
       gradientTransform="matrix(1.514456,0,0,0.837898,10.98058,49.94771)"
       gradientUnits="userSpaceOnUse"
       spreadMethod="reflect"
       x1="41.109016"
       x2="44.111984"
       xlink:href="#linearGradient2301"
       y1="79.413818"
       y2="79.413818" /><linearGradient
       id="linearGradient10091"
       gradientUnits="userSpaceOnUse"
       x1="17.92652577741"
       x2="23.18827475368"
       xlink:href="#linearGradient2285"
       y1="129.80384618495"
       y2="129.80384618495" /><linearGradient
       id="linearGradient10093"
       gradientTransform="matrix(1.514457,0,0,1.445422,-40.35187,34.23177)"
       gradientUnits="userSpaceOnUse"
       spreadMethod="reflect"
       x1="41.109016"
       x2="44.111984"
       xlink:href="#linearGradient2301"
       y1="79.413818"
       y2="79.413818" /><linearGradient
       id="linearGradient10095"
       gradientUnits="userSpaceOnUse"
       x1="-106.52981022259"
       x2="-101.26806124633"
       xlink:href="#linearGradient2285"
       y1="57.51928618495"
       y2="57.51928618495" /><linearGradient
       id="linearGradient10097"
       gradientTransform="matrix(1.514457,0,0,1.445422,-164.8738,-38.46197)"
       gradientUnits="userSpaceOnUse"
       spreadMethod="reflect"
       x1="41.109016"
       x2="44.111984"
       xlink:href="#linearGradient2301"
       y1="79.413818"
       y2="79.413818" /><linearGradient
       id="linearGradient10099"
       gradientUnits="userSpaceOnUse"
       x1="73.14876623212"
       x2="72.26131775069"
       xlink:href="#linearGradient3964"
       y1="119.90403500613"
       y2="99.17278818507" /><radialGradient
       id="radialGradient10101"
       cx="64.63961"
       cy="122.04091"
       gradientTransform="matrix(1,0,0,0.844444,0,18.98414)"
       gradientUnits="userSpaceOnUse"
       r="3.724434"
       xlink:href="#linearGradient3964" /><radialGradient
       id="radialGradient10103"
       cx="71.993324"
       cy="91.360512"
       gradientTransform="matrix(1.27094,0.201737,-0.414722,2.612754,18.29114,-164.7345)"
       gradientUnits="userSpaceOnUse"
       r="1.212078"><stop
         offset="0"
         stop-color="#656565"
         id="stop13" /><stop
         offset="1"
         stop-color="#656565"
         stop-opacity="0"
         id="stop14" /></radialGradient><radialGradient
       id="radialGradient10105"
       cx="72.915199"
       cy="90.395607"
       gradientTransform="matrix(1.114143,0.64395,-0.838953,1.451529,67.68717,-91.71487)"
       gradientUnits="userSpaceOnUse"
       r="1.212078"><stop
         offset="0"
         stop-color="#a5a5a5"
         id="stop15" /><stop
         offset="1"
         stop-color="#a5a5a5"
         stop-opacity="0"
         id="stop16" /></radialGradient><radialGradient
       id="radialGradient10107"
       cx="72.249008"
       cy="89.825218"
       gradientTransform="matrix(0.874459,0.23431,-0.534303,1.994044,57.13836,-110.7997)"
       gradientUnits="userSpaceOnUse"
       r="1.212078"
       xlink:href="#linearGradient11004" /><radialGradient
       id="radialGradient11015"
       cx="37.298531"
       cy="65.512085"
       gradientTransform="matrix(-0.14309,0.169755,-0.805092,-0.678625,139.9553,88.28146)"
       gradientUnits="userSpaceOnUse"
       r="17.969616"
       xlink:href="#linearGradient11004" /><radialGradient
       inkscape:collect="always"
       xlink:href="#linearGradient11004"
       id="radialGradient61"
       gradientUnits="userSpaceOnUse"
       gradientTransform="matrix(-0.149257,0.05954567,0.03707168,0.09292389,126.4361,56.59784)"
       cx="21.288511"
       cy="62.975674"
       fx="20.364378"
       fy="54.510296"
       r="33.898083" /><linearGradient
       inkscape:collect="always"
       xlink:href="#linearGradient3770"
       id="linearGradient61"
       gradientUnits="userSpaceOnUse"
       gradientTransform="matrix(-0.112993,0,0,0.112993,122.2074,55.53833)"
       x1="-11.3125"
       y1="75.197922"
       x2="24.776604"
       y2="75.197922" /><radialGradient
       inkscape:collect="always"
       xlink:href="#linearGradient11004"
       id="radialGradient62"
       gradientUnits="userSpaceOnUse"
       gradientTransform="matrix(-0.12603,0.08386505,0.01245339,0.01871453,127.012,58.40892)"
       cx="58.680527"
       cy="7.230381"
       r="55.698994" /><radialGradient
       inkscape:collect="always"
       xlink:href="#linearGradient3964"
       id="radialGradient63"
       gradientUnits="userSpaceOnUse"
       gradientTransform="matrix(1,0,0,0.316667,0,83.33806)"
       cx="36.747746"
       cy="121.95814"
       fx="33.78273"
       fy="122.4772"
       r="4.965911" /></defs><g
     id="g61"
     transform="matrix(0.40977346,0,0,0.44103607,11.251838,12.874442)"><path
       d="M 50.892799,3.2812959 V 0.48658747 Z"
       fill="#ffffff"
       fill-opacity="0.756881"
       id="path16" /><g
       transform="matrix(0.983225,0.133307,-0.133307,0.983225,6.038054,-5.426873)"
       id="g32"><path
         d="M 37.811106,2.1872674 C 27.504929,1.7630241 15.730004,12.650551 11.293218,26.346014 7.165626,39.08705 12.180953,50.942455 21.94758,54.696547 l 90.32594,22.352086 c 0.22985,0.06341 0.4731,0.08883 0.7221,0.116257 7.30848,0.0699 11.70881,-9.281571 6.04053,-14.231294 L 45.282739,4.275919 C 43.590791,3.0988942 41.072621,2.5464816 38.826959,2.2991503 38.497597,2.2628754 38.143563,2.200952 37.811106,2.1872674 Z"
         id="path17" /><path
         d="M 37.90441,2.7178301 C 27.839703,2.9836918 16.640046,13.6066 12.34191,26.87408 8.214318,39.615116 13.231533,51.463738 22.99816,55.21783 l 55.6875,13.78125 V 30.53033 L 46.34191,4.8115801 c -1.691947,-1.1770248 -4.223088,-1.7214187 -6.46875,-1.96875 -0.329361,-0.036275 -0.667543,-0.1113154 -1,-0.125 -0.322068,-0.013258 -0.644082,-0.00858 -0.96875,0 z"
         fill="url(#radialGradient10053)"
         opacity="0.87"
         id="path18"
         style="fill:url(#radialGradient10053)" /><path
         d="m 68.70079,47.24152 a 20.470032,20.470032 0 1 1 -40.940063,0 20.470032,20.470032 0 1 1 40.940063,0 z"
         opacity="0.15"
         transform="matrix(0.842901,0.09283444,-0.366665,1.134676,12.01036,-27.68145)"
         id="path19" /><path
         d="m 68.70079,47.24152 a 20.470032,20.470032 0 1 1 -40.940063,0 20.470032,20.470032 0 1 1 40.940063,0 z"
         fill="url(#radialGradient10055)"
         transform="matrix(0.874568,0.09632247,-0.380036,1.173095,10.30427,-29.96168)"
         id="path20"
         style="fill:url(#radialGradient10055)" /><path
         d="M 42.310316,6.0978151 C 34.138528,5.1977958 24.869694,11.806816 19.473389,21.612437 c -1.240134,5.076567 -1.011108,8.873217 2.717733,11.352228 7.831308,5.206421 23.606046,0.648208 31.326994,-11.164532 0.17084,-0.261378 0.316542,-0.528514 0.479736,-0.791737 C 53.568136,12.880155 49.278939,6.8653213 42.310316,6.0978151 Z"
         fill="url(#linearGradient10057)"
         id="path21"
         style="fill:url(#linearGradient10057)" /><path
         d="M 44.742045,4.4561673 74.174385,28.680248 57.759041,62.59596 19.283002,52.840711 c 0.926082,0.325016 1.902535,0.540026 2.943444,0.654668 C 32.766075,54.656186 45.030347,44.136326 49.610259,29.999078 53.214335,18.874023 50.990966,8.8033128 44.742045,4.4561673 Z"
         id="path22" /><path
         d="m 109.05784,54.911949 c 5.9382,6.708547 1.69767,17.310779 -6.4782,19.819789 l 5.74284,1.435709 c 0.25755,0.07106 0.52638,0.07432 0.80539,0.105052 8.18955,0.07833 13.10995,-10.38644 6.75834,-15.932869 z"
         fill="url(#linearGradient10059)"
         id="path23"
         style="fill:url(#linearGradient10059)" /><path
         d="m 54.487744,11.701957 1.309814,1.076959 C 55.382867,12.391559 54.950729,12.02404 54.487744,11.701957 Z m 1.309814,1.076959 c 4.798569,4.482279 6.320765,13.165565 3.230874,22.703442 C 54.762596,48.650119 43.318468,58.452 33.501614,57.370804 c -0.334094,-0.0368 -0.640158,-0.115277 -0.96053,-0.174642 l 4.919079,1.2516 c 9.753624,1.028599 21.084709,-8.284321 25.323069,-20.811488 3.068271,-9.068787 1.559565,-17.331045 -3.201767,-21.597377 l -1.309814,-1.047851 c 0.462984,0.308399 0.895442,0.676559 1.309814,1.047851 z M 32.541084,57.196162 30.765558,56.759557 c 0.565336,0.19841 1.166189,0.323695 1.775526,0.436605 z"
         fill="url(#linearGradient10061)"
         id="path24"
         style="fill:url(#linearGradient10061)" /><path
         d="m 45.6875,4.875 c 9.542644,6.243613 8.726336,21.892976 1.09375,34.9375 -17.360583,29.606131 -56.949298,-1.794469 -24.84375,14.875 l 90.34375,22.375 c 0.22985,0.06342 0.46975,0.06633 0.71875,0.09375 7.30848,0.06991 11.69953,-9.269027 6.03125,-14.21875 L 45.28125,4.28125 C 32.411333,2.9025972 31.622698,-2.7968975 45.6875,4.875 Z"
         fill="url(#radialGradient10063)"
         id="path25"
         style="fill:url(#radialGradient10063)" /><path
         d="m 119.0625,65.4375 a 2.9375,3.5 0 1 1 -5.875,0 2.9375,3.5 0 1 1 5.875,0 z"
         fill="url(#radialGradient10065)"
         transform="matrix(0.809672,0.280887,0.266851,1.15104,2.327355,-41.1892)"
         id="path26"
         style="fill:url(#radialGradient10065)" /><g
         transform="matrix(0.749609,0.184501,-0.149539,0.753064,33.91717,-6.173438)"
         id="g31"><path
           d="m 122.62415,60.02886 c -0.0403,0.0017 -0.14581,0.01028 -0.18577,0.01468 -0.27242,0.03 -0.51523,0.09253 -0.72048,0.23532 l -3.90625,3.09375 c -0.0219,0.0196 -0.0419,0.04135 -0.0625,0.0625 -0.3958,0.40601 -0.55388,1.09068 -0.375,1.875 0.28515,1.25025 1.33478,2.28125 2.34375,2.28125 0.10393,0 0.18676,-0.04182 0.28125,-0.0625 l 4.5625,-1.125 c 1.18481,-0.45541 1.78198,-1.89186 1.28125,-3.4375 -0.53823,-1.66142 -1.96849,-2.98897 -3.21875,-2.9375 z"
           id="path27" /><path
           d="m 122.61963,60.10514 c 1.22097,0.03225 2.57962,1.32094 3.10103,2.93044 0.50073,1.54564 -0.10792,2.98302 -1.29273,3.43843 l -6.75555,1.67183 v -4.66671 l 3.92368,-3.11999 c 0.20525,-0.14279 0.51231,-0.20883 0.78474,-0.23883 0.04,-0.0044 0.081,-0.01351 0.12131,-0.01517 0.0391,-0.0016 0.0781,-10e-4 0.11752,0 z"
           fill="url(#radialGradient10067)"
           opacity="0.87"
           id="path28"
           style="fill:url(#radialGradient61)" /><path
           d="m 121.79014,60.31602 -3.57049,2.93867 1.99138,4.11438 4.6676,-1.18343 c -0.11235,0.03943 -0.2308,0.06551 -0.35708,0.07942 -1.27858,0.14082 -2.76638,-1.13537 -3.32198,-2.85038 -0.43722,-1.3496 -0.16749,-2.5713 0.59057,-3.09866 z"
           id="path29" /><path
           d="m 120.60787,61.19502 -0.15889,0.13065 c 0.0503,-0.04699 0.10273,-0.09158 0.15889,-0.13065 z m -0.15889,0.13065 c -0.58212,0.54375 -0.76678,1.59714 -0.39194,2.7542 0.51749,1.5974 1.9058,2.78648 3.0967,2.65532 0.0405,-0.0045 0.0777,-0.01398 0.11652,-0.02118 l -0.59674,0.15183 c -1.18323,0.12478 -2.55782,-1.00499 -3.07199,-2.52468 -0.37221,-1.10015 -0.18919,-2.10246 0.38842,-2.62002 l 0.15889,-0.12711 c -0.0562,0.03741 -0.10863,0.08207 -0.15889,0.12711 z m 2.82128,5.38834 0.2154,-0.05297 c -0.0686,0.02407 -0.14148,0.03927 -0.2154,0.05297 z"
           fill="url(#linearGradient10069)"
           id="path30"
           style="fill:url(#linearGradient61)" /><path
           d="m 121.8429,60.27886 c 1.31676,-0.22769 1.03582,-0.14208 0,0 z m 0,0 c -0.0439,0.0058 -0.0785,0.02627 -0.125,0.03125 l -4,3.15625 c -0.3733,0.40952 -0.51797,1.07985 -0.34375,1.84375 0.28515,1.25025 1.33478,2.28125 2.34375,2.28125 0.10393,0 0.18676,-0.04182 0.28125,-0.0625 l 4.5625,-1.125 c 0.27239,-0.14143 0.40255,-0.19234 0.59375,-0.28125 -0.99552,0.21719 -2.62226,0.17879 -3.625,-1.53125 -0.92592,-1.58245 -1.00138,-3.46132 0.15625,-4.21875 0.0646,-0.03522 0.0968,-0.06306 0.15625,-0.09375 z m 3.3125,5.84375 c 0.94914,-0.20708 1.24107,-0.57708 0,0 z"
           fill="url(#radialGradient10071)"
           id="path31"
           style="fill:url(#radialGradient62)" /></g></g><path
       d="M 148.68161,70.410906 V 67.616197 Z"
       fill="#ffffff"
       fill-opacity="0.756881"
       id="path32" /><path
       d="m 181.29488,-142.14159 v -2.79471 z"
       fill="#ffffff"
       fill-opacity="0.756881"
       id="path33" /><g
       opacity="0.401639"
       transform="matrix(-0.782995,0,0,0.650879,-2141.564,544.3761)"
       id="g33" /><g
       opacity="0.401639"
       transform="matrix(-0.782995,0,0,0.650879,-2141.564,544.3761)"
       id="g34" /><g
       opacity="0.401639"
       transform="matrix(1,0,0,0.650879,1059.399,551.7039)"
       id="g35" /><g
       opacity="0.401639"
       transform="matrix(1,0,0,0.650879,1059.399,551.7039)"
       id="g36" /><path
       d="M 46.024007,89.450216 V 86.655507 Z"
       fill="#ffffff"
       fill-opacity="0.756881"
       id="path36" /><g
       transform="matrix(0.960176,0,0,0.960176,1.880318,5.8102)"
       id="g60"><path
         d="m 73.494908,71.608231 a 1.6130875,1.6351846 0 1 1 -3.226175,0 1.6130875,1.6351846 0 1 1 3.226175,0 z"
         fill="url(#radialGradient10073)"
         transform="matrix(1.606336,0,0,1.338798,-43.43367,-23.92013)"
         id="path37"
         style="fill:url(#radialGradient10073)" /><g
         transform="matrix(1.163613,0.2864,-0.232128,1.168977,-41.02318,-65.74521)"
         id="g42"><path
           d="m 122.62415,60.02886 c -0.0403,0.0017 -0.14581,0.01028 -0.18577,0.01468 -0.27242,0.03 -0.51523,0.09253 -0.72048,0.23532 l -3.90625,3.09375 c -0.0219,0.0196 -0.0419,0.04135 -0.0625,0.0625 -0.3958,0.40601 -0.55388,1.09068 -0.375,1.875 0.28515,1.25025 1.33478,2.28125 2.34375,2.28125 0.10393,0 0.18676,-0.04182 0.28125,-0.0625 l 4.5625,-1.125 c 1.18481,-0.45541 1.78198,-1.89186 1.28125,-3.4375 -0.53823,-1.66142 -1.96849,-2.98897 -3.21875,-2.9375 z"
           id="path38" /><path
           d="m 122.61963,60.10514 c 1.22097,0.03225 2.57962,1.32094 3.10103,2.93044 0.50073,1.54564 -0.10792,2.98302 -1.29273,3.43843 l -6.75555,1.67183 v -4.66671 l 3.92368,-3.11999 c 0.20525,-0.14279 0.51231,-0.20883 0.78474,-0.23883 0.04,-0.0044 0.081,-0.01351 0.12131,-0.01517 0.0391,-0.0016 0.0781,-10e-4 0.11752,0 z"
           fill="url(#radialGradient10067)"
           opacity="0.87"
           id="path39"
           style="fill:url(#radialGradient10067)" /><path
           d="m 121.79014,60.31602 -3.57049,2.93867 1.99138,4.11438 4.6676,-1.18343 c -0.11235,0.03943 -0.2308,0.06551 -0.35708,0.07942 -1.27858,0.14082 -2.76638,-1.13537 -3.32198,-2.85038 -0.43722,-1.3496 -0.16749,-2.5713 0.59057,-3.09866 z"
           id="path40" /><path
           d="m 120.60787,61.19502 -0.15889,0.13065 c 0.0503,-0.04699 0.10273,-0.09158 0.15889,-0.13065 z m -0.15889,0.13065 c -0.58212,0.54375 -0.76678,1.59714 -0.39194,2.7542 0.51749,1.5974 1.9058,2.78648 3.0967,2.65532 0.0405,-0.0045 0.0777,-0.01398 0.11652,-0.02118 l -0.59674,0.15183 c -1.18323,0.12478 -2.55782,-1.00499 -3.07199,-2.52468 -0.37221,-1.10015 -0.18919,-2.10246 0.38842,-2.62002 l 0.15889,-0.12711 c -0.0562,0.03741 -0.10863,0.08207 -0.15889,0.12711 z m 2.82128,5.38834 0.2154,-0.05297 c -0.0686,0.02407 -0.14148,0.03927 -0.2154,0.05297 z"
           fill="url(#linearGradient10069)"
           id="path41"
           style="fill:url(#linearGradient10069)" /><path
           d="m 121.8429,60.27886 c 1.31676,-0.22769 1.03582,-0.14208 0,0 z m 0,0 c -0.0439,0.0058 -0.0785,0.02627 -0.125,0.03125 l -4,3.15625 c -0.3733,0.40952 -0.51797,1.07985 -0.34375,1.84375 0.28515,1.25025 1.33478,2.28125 2.34375,2.28125 0.10393,0 0.18676,-0.04182 0.28125,-0.0625 l 4.5625,-1.125 c 0.27239,-0.14143 0.40255,-0.19234 0.59375,-0.28125 -0.99552,0.21719 -2.62226,0.17879 -3.625,-1.53125 -0.92592,-1.58245 -1.00138,-3.46132 0.15625,-4.21875 0.0646,-0.03522 0.0968,-0.06306 0.15625,-0.09375 z m 3.3125,5.84375 c 0.94914,-0.20708 1.24107,-0.57708 0,0 z"
           fill="url(#radialGradient10071)"
           id="path42"
           style="fill:url(#radialGradient10071)" /></g><path
         d="m 85.40625,40.65625 c 0.570242,2.342222 0.871859,4.859355 0.84375,7.46875 -0.137823,12.793827 -8.061667,23.1875 -17.6875,23.1875 -0.300578,0 -0.578027,-0.01097 -0.875,-0.03125 -0.256826,-0.183764 -0.527039,-0.391337 -0.78125,-0.59375 -3.36539,-2.679678 -5.996634,-6.625068 -7.75,-11.09375 h -4.125 c 1.736735,3.827509 4.152776,7.195883 7.125,9.5625 0.689842,0.549278 1.3899,0.995919 2.09375,1.40625 l 0.28125,0.1875 c 0.806006,0.446936 1.624726,0.785552 2.4375,1.0625 l 0.53125,0.15625 0.125,0.0625 0.5625,0.25 c 0.766108,0.313063 1.538341,0.539771 2.34375,0.71875 l 0.34375,0.0625 c 0.777869,0.144523 1.596686,0.25 2.40625,0.25 9.625833,3e-6 17.549672,-10.393671 17.6875,-23.1875 0.03625,-3.364963 -0.49842,-6.587353 -1.4375,-9.46875 -0.509041,-0.621863 -3.87725,-0.805877 -4.125,0 z"
         id="path43" /><path
         d="m 94.03125,42.515625 a 1.96875,2.984375 0 1 1 -3.9375,0 1.96875,2.984375 0 1 1 3.9375,0 z"
         style="fill:url(#radialGradient10081);stroke:#8a8a8a;stroke-width:0.2;stroke-linecap:round;stroke-linejoin:round;stroke-dashoffset:4"
         transform="matrix(0.596032,0,0.07227823,0.552206,30.35284,19.51436)"
         id="path44" /><path
         d="m 41.713657,121.95814 a 4.9659115,1.5725386 0 1 1 -9.931823,0 4.9659115,1.5725386 0 1 1 9.931823,0 z"
         fill="url(#radialGradient10083)"
         opacity="0.495902"
         transform="matrix(2.976524,-0.546624,0.285376,2.039351,-85.96056,-106.9435)"
         id="path45"
         style="fill:url(#radialGradient63)" /><path
         d="m 41.713657,121.95814 a 4.9659115,1.5725386 0 1 1 -9.931823,0 4.9659115,1.5725386 0 1 1 9.931823,0 z"
         fill="url(#radialGradient10083)"
         opacity="0.495902"
         transform="matrix(-2.976524,-0.546624,-0.285376,2.039351,230.5908,-105.7626)"
         id="path46"
         style="fill:url(#radialGradient10083)" /><path
         d="m 69.791543,72.346581 c 1.138554,-0.456148 2.605676,-0.460515 4.410893,0 0.266939,0.109375 0.425431,0.189742 0.425431,0.425431 v 44.240178 c 0,0.23569 -0.189742,0.42543 -0.425431,0.42543 h -4.410893 c -0.235689,0 -0.425431,-0.18974 -0.425431,-0.42543 V 72.772012 c 0,-0.235689 0.232711,-0.347306 0.425431,-0.425431 z"
         fill="url(#linearGradient10087)"
         id="path47"
         style="fill:url(#linearGradient10087)" /><rect
         height="8.7983522"
         rx="1.825048"
         width="8.0179071"
         x="67.988029"
         y="110.91685"
         id="rect47" /><rect
         fill="url(#linearGradient10089)"
         height="7.7033839"
         opacity="0.479508"
         rx="1.276611"
         ry="1.244351"
         width="6.8960838"
         x="68.494843"
         y="111.52327"
         id="rect48"
         style="fill:url(#linearGradient10089)" /><rect
         fill="url(#linearGradient10091)"
         height="41.673038"
         transform="matrix(0.866026,-0.5,0.5,0.866026,0,0)"
         width="5.2617469"
         x="17.926571"
         y="108.96725"
         id="rect49"
         style="fill:url(#linearGradient10091)" /><rect
         height="11.024617"
         rx="1.825051"
         ry="1.82505"
         transform="matrix(0.866026,-0.5,0.5,0.866026,0,0)"
         width="8.0179024"
         x="16.655664"
         y="143.55989"
         id="rect50" /><rect
         fill="url(#linearGradient10093)"
         height="9.4472322"
         opacity="0.479508"
         rx="1.276613"
         ry="1.244352"
         transform="matrix(0.866026,-0.5,0.5,0.866026,0,0)"
         width="6.89608"
         x="17.162485"
         y="144.29451"
         id="rect51"
         style="fill:url(#linearGradient10093)" /><rect
         fill="url(#linearGradient10095)"
         height="41.673038"
         transform="matrix(-0.866026,-0.5,-0.5,0.866026,0,0)"
         width="5.2617469"
         x="-106.52976"
         y="36.682716"
         id="rect52"
         style="fill:url(#linearGradient10095)" /><rect
         height="11.024617"
         rx="1.825052"
         transform="matrix(-0.866026,-0.5,-0.5,0.866026,0,0)"
         width="8.0179024"
         x="-107.86619"
         y="70.866051"
         id="rect53" /><rect
         fill="url(#linearGradient10097)"
         height="9.4472322"
         opacity="0.479508"
         rx="1.276614"
         ry="1.2443531"
         transform="matrix(-0.866026,-0.5,-0.5,0.866026,0,0)"
         width="6.89608"
         x="-107.35938"
         y="71.600655"
         id="rect54"
         style="fill:url(#linearGradient10097)" /><path
         d="m 70.766374,99.181684 c -0.06541,0.01672 -0.138604,0.05073 -0.201071,0.08043 -0.642886,0.334813 -1.125993,1.339606 -1.125993,2.533486 v 9.85245 c -0.151481,0.0666 -0.321088,0.17412 -0.442356,0.2815 -0.01824,0.0169 -0.06304,0.0626 -0.08043,0.0804 -0.01695,0.0182 -0.06438,0.0615 -0.08043,0.0804 -0.02338,0.029 -0.05921,0.09 -0.08043,0.12063 -0.03413,0.052 -0.09302,0.14503 -0.120641,0.20108 -0.03677,0.0795 -0.05781,0.1954 -0.08043,0.28149 -0.02634,0.11178 -0.04021,0.24216 -0.04021,0.36193 v 4.62463 c 0,0.17301 0.02684,0.36782 0.08043,0.52277 0.02205,0.0589 0.05146,0.1458 0.08043,0.20107 0.09691,0.17432 0.246452,0.35744 0.402141,0.48257 0.09926,0.076 0.245403,0.14988 0.361928,0.20107 0.188841,0.0776 0.424955,0.12064 0.643424,0.12064 h 0.281499 c 0.05826,0.0442 0.139256,0.0885 0.20107,0.12065 0.137424,0.0653 0.29216,0.12064 0.442356,0.12064 h 1.849847 c 0.232122,0 0.445335,-0.0912 0.643426,-0.24129 h 0.321713 c 0.150197,0 0.30493,-0.002 0.442354,-0.0402 0.160721,-0.0485 0.348623,-0.14857 0.482569,-0.24129 0.0607,-0.0442 0.147613,-0.10876 0.20107,-0.16086 0.05217,-0.0533 0.116958,-0.14081 0.160857,-0.20107 0.07073,-0.10221 0.156965,-0.24408 0.201071,-0.36193 0.05359,-0.15495 0.08043,-0.34976 0.08043,-0.52277 v -4.62463 c 0,-0.11977 -0.01387,-0.25015 -0.04022,-0.36193 -0.08079,-0.3075 -0.284495,-0.6032 -0.522782,-0.80428 -0.01946,-0.0156 -0.06019,-0.0657 -0.08043,-0.0804 -0.09273,-0.0642 -0.215488,-0.11721 -0.321712,-0.16086 v -9.85245 c 0,-1.12499 -0.419856,-2.066218 -1.005352,-2.453058 -0.169275,-0.103823 -0.371837,-0.160856 -0.562998,-0.160856 h -1.849847 c -0.08193,0 -0.162794,-0.02005 -0.241285,0 z"
         fill="url(#linearGradient10099)"
         opacity="0.77459"
         id="path54"
         style="fill:url(#linearGradient10099)" /><path
         d="m 68.364044,122.04091 a 3.7244337,3.1450772 0 1 1 -7.448867,0 3.7244337,3.1450772 0 1 1 7.448867,0 z"
         fill="url(#radialGradient10101)"
         opacity="0.495902"
         transform="matrix(1.487028,0,0,1.286851,-23.77696,-37.14954)"
         id="path55"
         style="fill:url(#radialGradient10101)" /><g
         fill-rule="evenodd"
         id="g59"><path
           d="m 70.984688,83.364371 0.924924,5.127297 2.194601,-3.785491 -0.746894,-1.221163 -1.045566,0.583104 z"
           fill="#c2c2c2"
           id="path56" /><path
           d="m 70.984688,83.364371 0.924924,5.127297 2.194601,-3.785491 -0.746894,-1.221163 -1.045566,0.583104 z"
           fill="url(#radialGradient10103)"
           id="path57"
           style="fill:url(#radialGradient10103)" /><path
           d="m 70.984688,83.364371 0.924924,5.127297 2.194601,-3.785491 -0.746894,-1.221163 -1.045566,0.583104 z"
           fill="url(#radialGradient10105)"
           id="path58"
           style="fill:url(#radialGradient10105)" /><path
           d="m 70.984688,83.364371 0.924924,5.127297 2.194601,-3.785491 -0.746894,-1.221163 -1.045566,0.583104 z"
           fill="url(#radialGradient10107)"
           opacity="0.82"
           id="path59"
           style="fill:url(#radialGradient10107)" /></g><path
         d="m 85.03125,47.8125 c 0.196614,1.09183 0.355089,2.197348 0.34375,3.25 -0.05261,4.883865 -1.369642,9.321996 -3.5,12.9375 h 4.71875 c 1.403806,-3.284987 2.237023,-7.082146 2.28125,-11.1875 0.01801,-1.671862 0.04466,-3.378765 -0.0625,-5 z"
         fill="url(#radialGradient11015)"
         opacity="0.86"
         transform="matrix(1.033373,0,0,1.033373,-1.449563,-4.240534)"
         id="path60"
         style="fill:url(#radialGradient11015)" /></g></g><text
     xml:space="preserve"
     style="font-size:12px;line-height:1.25;font-family:Sans;-inkscape-font-specification:'Sans, Normal';font-variant-ligatures:none"
     x="25.446444"
     y="98.275925"
     id="text63"><tspan
       sodipodi:role="line"
       id="tspan63"
       x="25.446444"
       y="98.275925">KSTARS / INDI </tspan><tspan
       sodipodi:role="line"
       x="25.446444"
       y="113.27592"
       id="tspan64">   BLEEDING</tspan></text><g
     transform="matrix(0.30475243,0,0,0.29444292,41.884551,-123.49467)"
     id="g4616"><path
       d="m 167.125,491.5625 c -0.73835,0.11522 -1.36993,0.66449 -1.5625,1.4375 l -1.21875,4.875 c -1.73903,-0.22192 -3.51346,-0.34375 -5.3125,-0.34375 -2.43991,0 -4.83123,0.22132 -7.15625,0.625 l -1.4375,-4.84375 c -0.29954,-1.01906 -1.35593,-1.58079 -2.375,-1.28125 l -6.4375,1.875 c -1.01906,0.29954 -1.58079,1.35595 -1.28125,2.375 l 1.46875,5 c -3.13486,1.42954 -6.05858,3.21666 -8.71875,5.34375 l -3.90625,-3.59375 c -0.78353,-0.71714 -2.00161,-0.65853 -2.71875,0.125 l -4.53125,4.96875 c -0.71714,0.78353 -0.65853,1.97038 0.125,2.6875 l 3.6875,3.375 c -2.34926,3.1299 -4.25722,6.61875 -5.65625,10.34375 l -5.3125,-1.15625 c -1.03769,-0.22674 -2.05451,0.43105 -2.28125,1.46875 l -1.4375,6.53125 c -0.22674,1.03769 0.43106,2.05453 1.46875,2.28125 l 5.125,1.125 c -0.14834,1.42765 -0.21875,2.87707 -0.21875,4.34375 0,2.15251 0.153,4.27908 0.46875,6.34375 l -4.8125,1.34375 c -1.02219,0.28868 -1.60118,1.3528 -1.3125,2.375 l 1.8125,6.4375 c 0.28868,1.02219 1.35281,1.63242 2.375,1.34375 l 4.875,-1.375 c 1.46305,3.38637 3.35875,6.525 5.625,9.375 l -3.5,3.40625 c -0.76107,0.74093 -0.77218,1.9264 -0.0312,2.6875 l 4.6875,4.8125 c 0.74093,0.76107 1.95768,0.77221 2.71875,0.0312 l 3.6875,-3.5625 c 3.21767,2.42581 6.80892,4.39564 10.65625,5.8125 L 143.5,582.9375 c -0.25676,1.03067 0.37558,2.08701 1.40625,2.34375 l 6.5,1.625 c 1.03067,0.25676 2.05574,-0.3756 2.3125,-1.40625 l 1.25,-5 c 1.33809,0.13003 2.69046,0.21875 4.0625,0.21875 3.30052,0 6.51454,-0.39741 9.59375,-1.125 l 1.78125,4.8125 c 0.3674,0.99661 1.44089,1.52368 2.4375,1.15625 l 6.3125,-2.34375 c 0.99661,-0.3674 1.4924,-1.4409 1.125,-2.4375 l -1.8125,-4.90625 c 3.5161,-1.86508 6.73536,-4.21551 9.5625,-6.96875 l 4,3.1875 c 0.83163,0.66076 2.02674,0.51914 2.6875,-0.3125 l 4.1875,-5.25 c 0.66076,-0.83163 0.51913,-2.02671 -0.3125,-2.6875 l -4,-3.15625 c 1.60633,-2.6428 2.91545,-5.48326 3.90625,-8.46875 l 4.96875,0.96875 c 1.04248,0.2036 2.0464,-0.48876 2.25,-1.53125 L 207,545.0625 c 0.2036,-1.04248 -0.45752,-2.01512 -1.5,-2.21875 l -4.96875,-0.96875 c 0.06,-0.91309 0.0937,-1.82183 0.0937,-2.75 0,-2.47193 -0.21089,-4.89622 -0.625,-7.25 l 4.84375,-1.625 c 1.00792,-0.33512 1.55387,-1.39836 1.21875,-2.40625 l -2.125,-6.375 c -0.33512,-1.00792 -1.42958,-1.55388 -2.4375,-1.21875 l -4.65625,1.5625 c -1.37872,-3.00442 -3.1028,-5.80656 -5.125,-8.375 L 195.15625,510 c 0.74999,-0.75215 0.75214,-1.93752 0,-2.6875 l -4.75,-4.75 c -0.75215,-0.74999 -1.96876,-0.75214 -2.71875,0 l -3.46875,3.5 c -2.93786,-2.24212 -6.1786,-4.09677 -9.65625,-5.5 l 1.25,-5 c 0.25676,-1.03067 -0.37558,-2.08698 -1.40625,-2.34375 l -6.5,-1.625 c -0.25767,-0.0642 -0.53513,-0.0697 -0.78125,-0.0312 z m -8.09375,36.625 c 5.81795,0 10.53125,4.91176 10.53125,10.9375 1e-5,6.02574 -4.71329,10.90625 -10.53125,10.90625 -5.81796,0 -10.53125,-4.88051 -10.53125,-10.90625 0,-6.02574 4.71329,-10.9375 10.53125,-10.9375 z"
       style="opacity:1;fill:#aaaaaa;fill-opacity:1;fill-rule:evenodd;stroke:#000000;stroke-width:2;stroke-miterlimit:4;stroke-dasharray:none;stroke-opacity:1"
       id="path1902" /><path
       d="m 190.4375,574.125 c -0.12752,-0.005 -0.27529,0.009 -0.40625,0.0312 l -6.59375,1.125 c -1.04766,0.17496 -1.76872,1.13981 -1.59375,2.1875 l 0.8125,4.8125 c -5.5222,2.00824 -10.33749,5.52471 -13.9375,10.03125 l -4.1875,-2.4375 c -0.91717,-0.53573 -2.05802,-0.22965 -2.59375,0.6875 l -3.40625,5.78125 c -0.53573,0.91717 -0.22967,2.08929 0.6875,2.625 l 4.375,2.5625 c -1.16357,3.29667 -1.78125,6.83639 -1.78125,10.53125 0,2.57594 0.32561,5.0701 0.90625,7.46875 l -4.375,1.8125 c -0.98253,0.40354 -1.46604,1.5175 -1.0625,2.5 l 2.5625,6.21875 c 0.40354,0.98253 1.51746,1.43476 2.5,1.03125 l 4.53125,-1.875 c 2.80601,4.34767 6.6301,7.96281 11.15625,10.5 l -1.625,4.6875 c -0.34645,1.00408 0.18342,2.09104 1.1875,2.4375 l 6.34375,2.1875 c 1.00408,0.34645 2.09105,-0.18344 2.4375,-1.1875 l 1.59375,-4.59375 c 1.78949,0.31476 3.62052,0.5 5.5,0.5 4.83256,0 9.39916,-1.09136 13.5,-3.03125 l 2.78125,4 c 0.60587,0.87243 1.81508,1.0746 2.6875,0.46875 l 5.5,-3.8125 c 0.87243,-0.60587 1.10587,-1.78385 0.5,-2.65625 l -2.8125,-4.03125 c 3.70982,-3.63261 6.51678,-8.16974 8.09375,-13.25 L 228.5,622.1562 c 1.0506,0.15632 2.03118,-0.5744 2.1875,-1.625 l 1,-6.625 c 0.15632,-1.0506 -0.5744,-1.99991 -1.625,-2.15625 L 225.125,611 c -0.23944,-7.20896 -2.90137,-13.82287 -7.1875,-19.03125 l 3.21875,-3.71875 c 0.69525,-0.80301 0.6155,-1.99223 -0.1875,-2.6875 l -5.0625,-4.40625 c -0.80301,-0.69525 -2.02349,-0.58423 -2.71875,0.21875 l -3.15625,3.65625 c -4.81677,-2.95263 -10.50335,-4.625 -16.5625,-4.625 -0.14704,0 -0.29094,-0.002 -0.4375,0 L 192.25,575.75 c -0.15309,-0.9167 -0.91985,-1.59343 -1.8125,-1.625 z m 3.03125,28.53125 c 5.19461,0 9.4375,4.21165 9.4375,9.40625 0,5.19459 -4.2429,9.4375 -9.4375,9.4375 -5.1946,-2e-5 -9.40625,-4.2429 -9.40625,-9.4375 0,-5.19462 4.21165,-9.40625 9.40625,-9.40625 z"
       style="opacity:1;fill:#aaaaaa;fill-opacity:1;fill-rule:evenodd;stroke:#000000;stroke-width:2;stroke-linejoin:miter;stroke-miterlimit:4;stroke-dasharray:none;stroke-opacity:1"
       id="path2822" /></g></svg>
