<?xml version="1.0" encoding="UTF-8" standalone="no"?>
<svg
   viewBox="0 0 485.00001 485.00016"
   enable-background="new 0 0 64 64"
   version="1.1"
   id="svg4"
   sodipodi:docname="power_supply.svg"
   inkscape:version="1.4 (e7c3feb100, 2024-10-09)"
   width="485"
   height="485"
   xmlns:inkscape="http://www.inkscape.org/namespaces/inkscape"
   xmlns:sodipodi="http://sodipodi.sourceforge.net/DTD/sodipodi-0.dtd"
   xmlns="http://www.w3.org/2000/svg"
   xmlns:svg="http://www.w3.org/2000/svg">
  <defs
     id="defs4" />
  <sodipodi:namedview
     id="namedview4"
     pagecolor="#ffffff"
     bordercolor="#666666"
     borderopacity="1.0"
     inkscape:showpageshadow="2"
     inkscape:pageopacity="0.0"
     inkscape:pagecheckerboard="0"
     inkscape:deskcolor="#d1d1d1"
     showgrid="false"
     inkscape:zoom="2.2792969"
     inkscape:cx="218.0497"
     inkscape:cy="256.43873"
     inkscape:window-width="2560"
     inkscape:window-height="1376"
     inkscape:window-x="1680"
     inkscape:window-y="0"
     inkscape:window-maximized="1"
     inkscape:current-layer="svg4">
    <inkscape:grid
       id="grid4"
       units="px"
       originx="-8.116538"
       originy="-10.584404"
       spacingx="3.7795276"
       spacingy="3.7795276"
       empcolor="#0099e5"
       empopacity="0.30196078"
       color="#0099e5"
       opacity="0.14901961"
       empspacing="5"
       enabled="true"
       visible="false" />
  </sodipodi:namedview>
  <g
     fill="#d0d0d0"
     id="g2"
     transform="matrix(5.9648672,0,0,5.4138817,49.686373,68.332476)">
    <path
       d="m 11.7,13.1 c 0,0.6 -0.5,1.1 -1.2,1.1 H 9 C 8.3,14.2 7.8,13.7 7.8,13.1 V 1.1 C 7.8,0.5 8.3,0 9,0 h 1.6 c 0.7,0 1.2,0.5 1.2,1.1 v 12 z"
       id="path1" />
    <path
       d="m 21.8,13.1 c 0,0.6 -0.5,1.1 -1.2,1.1 H 19 c -0.7,0 -1.2,-0.5 -1.2,-1.1 V 1.1 C 17.8,0.5 18.3,0 19,0 h 1.6 c 0.7,0 1.2,0.5 1.2,1.1 v 12"
       id="path2" />
  </g>
  <g
     fill="#3e4347"
     id="g4"
     transform="matrix(5.9648672,0,0,5.4138817,49.686373,68.332476)">
    <path
       d="M 0,13.6 V 18 c 0,0.6 0.5,1.1 1.2,1.1 H 2.9 V 24 c 0,4.2 2.3,7.8 5.7,9.8 V 38 c 0,0.6 0.5,1.1 1.2,1.1 H 20 c 0.7,0 1.2,-0.5 1.2,-1.1 v -4.2 c 3.4,-2 5.7,-5.7 5.7,-9.8 v -4.8 h 1.7 c 0.6,0 1.2,-0.5 1.2,-1.1 v -4.5 c 0,-0.5 -0.4,-1 -0.9,-1.1 H 0.9 C 0.4,12.6 0,13 0,13.6"
       id="path3" />
    <path
       d="M 60.1,25.8 V 64 H 64 V 25.8 c 0,-1.8 -0.4,-3.6 -1.1,-5.2 -0.7,-1.6 -1.7,-3 -3,-4.2 -1.3,-1.2 -2.7,-2.2 -4.4,-2.9 -1.7,-0.7 -3.5,-1.1 -5.4,-1.1 -1.9,0 -3.7,0.4 -5.4,1.1 -1.6,0.7 -3.1,1.6 -4.4,2.9 -1.3,1.2 -2.3,2.7 -3,4.2 -0.7,1.6 -1.1,3.4 -1.1,5.2 v 24.8 c 0,5.3 -4.4,9.5 -9.8,9.5 -5.4,0 -9.8,-4.3 -9.8,-9.5 V 39.2 h -3.9 v 11.4 c 0,1.8 0.4,3.5 1.1,5.2 0.7,1.6 1.7,3 3,4.2 1.3,1.2 2.7,2.2 4.4,2.9 1.7,0.7 3.5,1 5.4,1 1.9,0 3.7,-0.4 5.4,-1 1.6,-0.7 3.1,-1.6 4.4,-2.9 1.3,-1.2 2.3,-2.7 3,-4.2 0.7,-1.6 1.1,-3.4 1.1,-5.2 V 25.8 c 0,-5.3 4.4,-9.5 9.8,-9.5 5.4,0 9.8,4.3 9.8,9.5"
       id="path4" />
  </g>
</svg>
