<?xml version="1.0" encoding="UTF-8"?>
<!-- Generated by Pixelmator Pro 3.5.8 -->
<svg width="1000" height="1000" viewBox="0 0 1000 1000" xmlns="http://www.w3.org/2000/svg">
    <g id="ROUGE">
        <g id="IMG1ALL11741">
            <path id="icontelltalesredasset7" fill="#000000" fill-rule="evenodd" stroke="none" d="M 638.506775 543.915405 L 665.314514 543.915405 L 665.314514 504.448395 L 704.781494 504.448395 L 704.781494 477.268311 L 665.314514 477.268311 L 665.314514 437.801331 L 638.506775 437.801331 L 638.506775 477.268311 L 599.039795 477.268311 L 599.039795 504.448395 L 638.506775 504.448395 Z M 295.59082 504.448395 L 401.33255 504.448395 L 401.33255 477.268311 L 295.59082 477.268311 Z M 752.812073 658.965332 L 247.560257 658.965332 C 247.560257 658.965332 247.560257 386.047485 247.560257 386.047485 L 752.439697 386.047485 L 752.439697 658.965332 Z M 693.983948 358.867371 L 693.983948 313.443115 L 610.954346 313.443115 C 610.954346 313.443115 610.954346 358.867371 610.954346 358.867371 L 390.162659 358.867371 L 390.162659 313.443115 L 307.133057 313.443115 C 307.133057 313.443115 307.133057 358.867371 307.133057 358.867371 L 220.752502 358.867371 L 220.752502 685.773071 C 220.752502 685.773071 779.247498 685.773071 779.247498 685.773071 L 779.247498 358.867371 C 779.247498 358.867371 693.611572 358.867371 693.611572 358.867371 Z"/>
        </g>
    </g>
</svg>
